<?xml version="1.0" encoding="utf-8"?>
<!-- Generator: Adobe Illustrator 19.0.0, SVG Export Plug-In . SVG Version: 6.00 Build 0)  -->
<svg version="1.1" id="Layer_1" xmlns="http://www.w3.org/2000/svg" xmlns:xlink="http://www.w3.org/1999/xlink" x="0px" y="0px"
	 viewBox="0 0 457.3 118" enable-background="new 0 0 457.3 118" xml:space="preserve">
<g id="XMLID_1_">
	<g id="XMLID_195_">
		<g id="XMLID_493_">
			<path id="XMLID_506_" fill="#F2A93D" d="M359.2,97.3c-0.4-0.2-0.8-0.5-1-0.9c-0.3-0.7-0.7-1.6-0.9-2.5c-0.3-0.9-0.5-1.8-0.7-2.8
				c-0.2-0.9-0.4-1.9-0.6-2.7c-0.2-0.9-0.3-1.7-0.4-2.4c-1.9,0.4-3.6,0.8-5.3,1.1c-1.7,0.4-3.3,0.8-4.9,1.2c-1.8,3-3.7,6-5.6,8.9
				c-1.9,2.9-3.9,5.8-6.1,8.6c-0.6,0.8-1.3,1.7-2,2.5c-0.7,0.8-1.4,1.6-2.1,2.4c-0.3,0.4-0.6,0.7-0.9,0.9c-0.3,0.2-0.7,0.4-1.2,0.3
				c-0.4-0.1-0.7-0.2-1.1-0.4c-0.4-0.2-0.7-0.5-1-0.8c-0.3-0.3-0.5-0.7-0.6-1c-0.1-0.4-0.1-0.8,0.1-1.2c0.1-0.3,0.2-0.5,0.4-0.6
				c0.2-0.2,0.3-0.3,0.4-0.5c1.4-1.6,2.7-3.2,3.9-4.9c1.2-1.7,2.3-3.2,3.4-4.7c1-1.5,2-2.9,2.8-4.2c0.8-1.3,1.6-2.4,2.2-3.3
				c-1.8,0.5-3.2,0.9-4.2,1.3c-1,0.3-1.9,0.6-2.8,0.7c-0.2,0-0.4,0-0.6-0.1c-0.2-0.1-0.4-0.3-0.5-0.4c-0.4-0.4-0.7-0.9-0.8-1.5
				c-0.2-0.6-0.2-1.2-0.2-1.8c0.1-0.6,0.3-0.9,0.7-1.1c0.3-0.2,0.7-0.3,1.2-0.4c1.7-0.5,3.4-0.9,5.2-1.4c1.7-0.4,3.8-0.8,6.1-1.2
				c2.1-3.2,4.1-6.4,6-9.6c1.9-3.2,3.8-6.4,5.6-9.7c0.8-1.5,1.5-2.6,2-3.5c0.5-0.9,0.9-1.5,1.1-2c0.3-0.4,0.4-0.7,0.5-0.9
				c0.1-0.1,0.2-0.3,0.3-0.4c0.2-0.3,0.5-0.5,0.9-0.6c0.4-0.1,0.7-0.1,1.1-0.1c0.4,0,0.8,0.1,1.1,0.2c0.4,0.1,0.6,0.2,0.8,0.3
				c0.6,0.3,0.9,0.6,1,1.1c0,0.5,0,1-0.2,1.5c-0.2,0.5-0.4,1.1-0.5,1.6c-0.1,0.6-0.2,1.1-0.3,1.7c-0.5,3-0.9,6-1.1,9.1
				c-0.2,3.1-0.2,6.1,0.1,9.2c0.2,1.5,0.4,3,0.6,4.5c0.3,1.5,0.6,2.9,1,4.3c0.2,0.6,0.4,1.3,0.8,1.9c0.4,0.7,0.5,1.3,0.5,1.9
				c0,0.5-0.2,0.9-0.4,1.2c-0.3,0.3-0.6,0.6-1,0.8c-0.4,0.2-0.8,0.3-1.3,0.3C359.9,97.4,359.5,97.4,359.2,97.3z M355.3,82.5
				c0-2.4,0-4.8,0.2-7.2c0.1-2.4,0.4-4.8,0.8-7.2c-1.2,2.5-2.4,4.9-3.7,7.3c-1.3,2.4-2.7,5-4.3,7.8c1-0.2,2-0.3,3.1-0.4
				C352.4,82.8,353.7,82.7,355.3,82.5z"/>
			<path id="XMLID_503_" fill="#F2A93D" d="M382.7,66.7c0.1,0.3,0.1,0.6,0,0.8c-0.1,0.3-0.3,0.5-0.4,0.8c-0.7,1.7-1.2,3.1-1.5,4
				c-0.3,0.9-0.6,1.8-0.8,2.5c-0.5,1.6-1,3.2-1.4,4.8c-0.4,1.6-0.9,3.2-1.3,4.8c-0.4,1.6-0.8,3.3-1.2,4.9c-0.4,1.6-0.8,3.3-1.1,4.9
				c-0.3,1.6-0.6,3.1-0.9,4.7c-0.3,1.6-0.5,3.1-0.7,4.7c-0.1,0.4-0.1,0.7-0.1,1.1c0,0.4-0.1,0.7-0.1,1.1c0,0.3-0.1,0.6-0.1,0.9
				c0,0.3-0.1,0.5-0.3,0.7c-0.4,0.4-0.9,0.6-1.5,0.6c-0.6,0-1.1-0.1-1.6-0.4c-0.5-0.3-0.7-0.8-0.7-1.5c0-0.3,0-0.7,0.1-1
				c0-0.3,0.1-0.7,0.1-1c0.1-0.7,0.1-1.5,0.2-2.3c0.1-0.8,0.2-1.5,0.3-2.3c0.5-3.3,1.1-6.5,1.9-9.7c-0.6,0.6-1.3,1-2,1.4
				c-0.7,0.3-1.5,0.5-2.3,0.4c-1-0.1-1.8-0.5-2.4-1.2c-0.7-0.8-1.1-1.7-1.2-2.8c-0.1-1.1-0.1-2.1,0-3.1c0.3-1.9,0.9-3.9,1.6-5.7
				c0.7-1.9,1.6-3.6,2.5-5.2c0.9-1.6,2-3,3.1-4.2c1.2-1.3,2.5-2.1,3.9-2.6c0.6-0.2,1.3-0.2,1.9-0.2c0.6,0,1.2,0.3,1.7,0.6
				c0.4-0.8,0.7-1.3,0.9-1.6c0.2-0.3,0.4-0.4,0.8-0.5c0.6-0.1,1.1,0,1.7,0.3C382.2,65.8,382.5,66.2,382.7,66.7z M371.7,74.9
				c-1,1.7-1.8,3.3-2.4,5c-0.7,1.7-1.2,3.4-1.5,5.1c-0.3,1.8-0.2,2.7,0.3,2.7c0.5,0,1.3-0.7,2.3-2c1.5-2.4,2.7-4.8,3.7-7.3
				c0.9-2.5,1.9-5,2.7-7.5c0-0.2-0.1-0.5-0.2-0.7c-0.1-0.2-0.3-0.3-0.6-0.2c-0.4,0.2-0.8,0.5-1.2,0.8c-0.4,0.4-0.8,0.8-1.1,1.3
				c-0.4,0.5-0.7,1-1,1.5C372.2,74.1,371.9,74.5,371.7,74.9z"/>
			<path id="XMLID_500_" fill="#F2A93D" d="M385.9,82c-1.1-0.7-1.8-1.6-2.2-2.7c-0.4-1.2-0.6-2.3-0.6-3.6c0-1.2,0.2-2.3,0.5-3.4
				c0.3-1.1,0.6-2.2,1.1-3.2c0.4-1,0.9-2,1.5-3c0.6-1,1.2-1.8,1.8-2.7c0.5-0.6,1.1-1.3,1.8-1.9c0.7-0.7,1.5-1.3,2.4-1.7
				c0.9-0.5,1.7-0.8,2.6-0.9c0.9-0.1,1.7,0.1,2.4,0.7c0.7,0.5,1,1.1,1.1,1.9c0.1,0.8,0.1,1.6,0,2.4c-0.3,1.6-0.8,3.1-1.6,4.6
				c-0.8,1.5-1.8,2.8-3,3.9c-0.9,0.8-1.8,1.5-2.9,2.1c-1,0.6-2.1,0.8-3.3,0.9c-0.1,0.5-0.1,0.9,0,1.4c0,0.4,0.1,0.8,0.3,1.2
				c0.2,0.3,0.4,0.6,0.8,0.8c0.3,0.2,0.8,0.3,1.4,0.3c1,0,2.1-0.5,3.1-1.4c1-0.9,1.9-2,2.8-3.2c0.9-1.2,1.6-2.5,2.3-3.7
				c0.6-1.3,1.1-2.2,1.5-3c0.1-0.4,0.3-0.7,0.4-1.2c0.1-0.4,0.4-0.8,0.6-1c0.3-0.2,0.6-0.4,0.9-0.4c0.3,0,0.6,0,0.9,0.1
				c0.3,0.1,0.6,0.3,0.8,0.5c0.2,0.2,0.3,0.5,0.3,0.8c0,0.4-0.1,0.8-0.2,1.2c-0.2,0.4-0.3,0.8-0.5,1.2c-0.8,1.9-1.5,3.2-2,4.1
				c-0.5,0.9-1,1.7-1.4,2.4c-0.6,1-1.5,2.1-2.5,3.2c-1,1.1-2.1,2-3.3,2.8c-1.2,0.8-2.4,1.3-3.7,1.5C388.4,83,387.2,82.7,385.9,82z
				 M389.6,71.1c1.2-0.8,2.3-1.8,3.1-3c0.8-1.3,1.4-2.5,1.8-3.7c0.2-0.4,0.2-0.9,0.2-1.3c0-0.4-0.1-0.6-0.4-0.7
				c-0.8,0.6-1.6,1.4-2.2,2.2c-0.6,0.8-1.2,1.7-1.7,2.5c-0.9,1.5-1.6,3-2.1,4.5C388.7,71.6,389.1,71.4,389.6,71.1z"/>
			<path id="XMLID_498_" fill="#F2A93D" d="M413.7,73c-0.8,0.4-1.6,0.5-2.2,0.4c-0.7-0.1-1.2-0.4-1.7-0.9c-0.5-0.5-0.8-1.1-1-1.8
				c-0.2-0.7-0.3-1.4-0.3-2.1c0-1.7,0.4-3.3,1-4.8c0.6-1.6,1.2-3.1,1.8-4.6c0.1-0.2,0.2-0.6,0.5-1.1c0.2-0.5,0.4-1.1,0.6-1.6
				c0.2-0.5,0.2-0.9,0.2-1.1c0-0.2-0.2-0.2-0.6,0.1c-0.7,0.6-1.4,1.3-2,2.1c-0.6,0.8-1.2,1.5-1.7,2.3c-0.6,1-1.1,1.9-1.7,2.9
				c-0.5,1-1,2-1.5,3c-0.3,0.6-0.5,1.3-0.8,2.1c-0.3,0.8-0.5,1.6-0.8,2.5c-0.2,0.9-0.5,1.7-0.7,2.6c-0.2,0.9-0.4,1.7-0.6,2.4
				c-0.1,0.3-0.1,0.6-0.1,0.9c0,0.3-0.1,0.6-0.4,0.8c-0.5,0.4-1,0.6-1.7,0.5c-0.7-0.1-1.2-0.3-1.6-0.8c-0.2-0.2-0.3-0.5-0.3-0.8
				c0-0.3,0-0.6,0.1-0.9l0.4-2.6c0.2-0.9,0.3-1.9,0.6-2.9c0.2-1,0.5-2.1,0.8-3.3c0.3-1.2,0.7-2.6,1.2-4.1c0.5-1.5,1.1-3.3,1.8-5.3
				c0.1-0.2,0.2-0.4,0.3-0.6c0.1-0.2,0.2-0.4,0.4-0.5c0.5-0.5,1.1-0.6,1.9-0.3c0.7,0.3,1.2,0.7,1.6,1.3c0.7-1,1.4-1.9,2.2-2.7
				c0.8-0.8,1.7-1.6,2.8-2.3c0.8-0.4,1.5-0.7,2-0.6c0.6,0,1.1,0.2,1.5,0.5c0.5,0.3,0.9,0.7,1.1,1.1c0.2,0.5,0.3,0.9,0.4,1.5
				c0,0.5,0,1-0.1,1.6c-0.1,0.5-0.2,1-0.3,1.5c-0.5,1.8-1.1,3.4-1.8,5c-0.7,1.6-1.3,3.2-1.7,4.8c-0.1,0.3-0.1,0.6-0.2,1
				c-0.1,0.4-0.1,0.7-0.1,1c0,0.3,0,0.5,0.1,0.6c0.1,0.1,0.3,0.1,0.5-0.2c0.4-0.4,0.8-0.8,1.2-1.4c0.4-0.6,0.8-1.2,1.1-1.8
				c0.3-0.6,0.6-1.3,0.9-2c0.3-0.7,0.6-1.3,0.8-1.9l1-2.4c0.1-0.3,0.3-0.7,0.4-1c0.1-0.4,0.3-0.7,0.6-1c0.5-0.5,1.1-0.6,1.7-0.4
				c0.6,0.2,1,0.6,1.2,1.3c0.1,0.4,0,0.8-0.1,1.1c-0.1,0.3-0.3,0.7-0.4,1l-0.9,2.3c-0.3,0.7-0.6,1.4-0.9,2.1c-0.3,0.7-0.7,1.4-1,2.1
				c-0.6,1.2-1.3,2.3-2.1,3.4C416,71.5,415,72.4,413.7,73z"/>
			<path id="XMLID_496_" fill="#F2A93D" d="M427.4,45.2c0.8-0.3,1.6-0.4,2.5-0.4c0.8,0,1.5,0.4,2.1,1.1c0.3,0.4,0.5,0.8,0.7,1.2
				c0.1,0.5,0.2,0.9,0.2,1.4c0,0.5,0,1-0.1,1.5c-0.1,0.5-0.2,1-0.3,1.4c-0.1,0.5-0.3,1-0.4,1.5c-0.2,0.5-0.3,0.9-0.5,1.4
				c-0.2,0.3-0.4,0.7-0.6,1.1c-0.2,0.4-0.5,0.7-1,0.7c-0.4,0.1-0.8,0.1-1.1-0.1c-0.4-0.1-0.7-0.3-1-0.6c-0.2-0.2-0.4-0.4-0.6-0.7
				c-0.2-0.3-0.2-0.6-0.2-0.9c0-0.2,0.1-0.4,0.2-0.7c0.1-0.2,0.3-0.5,0.4-0.7c0.3-0.5,0.6-1,0.8-1.5c0.2-0.5,0.4-0.9,0.5-1.3
				c0.1-0.4,0.2-0.7,0.2-1c0-0.3,0-0.4-0.2-0.4c-0.3,0-0.6,0.2-1,0.6c-0.4,0.4-0.8,0.9-1.2,1.5c-0.4,0.6-0.7,1.1-1,1.7
				c-0.3,0.5-0.5,0.9-0.6,1.1c-0.8,1.5-1.4,3.2-1.8,4.9c-0.2,0.7-0.3,1.3-0.4,2c-0.1,0.7-0.1,1.3-0.1,2c0.1,0.6,0.2,1.1,0.4,1.6
				c0.2,0.5,0.7,0.8,1.3,0.9c0.5,0.1,1.1-0.1,1.6-0.4c0.6-0.4,1-0.7,1.4-0.9c1.2-0.9,2.3-2.1,3.4-3.7c1.1-1.6,2.2-3.7,3.3-6.3
				c0.1-0.4,0.3-0.7,0.4-1.2c0.1-0.4,0.4-0.8,0.6-1c0.3-0.2,0.6-0.4,0.9-0.4c0.3,0,0.6,0,0.9,0.1c0.3,0.1,0.6,0.3,0.8,0.6
				c0.2,0.3,0.3,0.6,0.4,1c0,0.4-0.1,0.8-0.3,1.1c-0.2,0.4-0.4,0.7-0.5,1.1c-0.5,0.9-0.8,1.7-1.2,2.4c-0.3,0.7-0.6,1.2-0.9,1.7
				c-0.3,0.5-0.5,0.9-0.7,1.3c-0.2,0.4-0.4,0.7-0.7,1.1c-0.6,1-1.4,2-2.5,3.1c-1,1.1-2.1,2-3.3,2.8c-1.2,0.8-2.4,1.3-3.7,1.5
				c-1.3,0.2-2.5-0.2-3.6-1.1c-1-0.8-1.6-1.8-1.9-3.1c-0.3-1.2-0.4-2.4-0.4-3.6c0.1-2,0.5-3.9,1.2-5.9c0.7-1.9,1.6-3.7,2.7-5.4
				c0.6-0.8,1.2-1.6,2-2.4C425.5,46.1,426.4,45.5,427.4,45.2z"/>
			<path id="XMLID_494_" fill="#F2A93D" d="M452.6,38.1c0.1,0.1,0.1,0.3,0.1,0.5c0,0.2-0.1,0.4-0.2,0.6c-0.1,0.3-0.3,0.6-0.4,1
				c-0.2,0.4-0.4,1-0.6,1.6c-1,2.5-1.8,5-2.5,7.3c-0.7,2.3-1.3,4.5-1.8,6.8c-0.9,3.5-1.7,6.8-2.4,9.9c-0.7,3.1-1.2,6.2-1.6,9.3
				c-0.1,0.4-0.1,0.7-0.1,1.1c0,0.4-0.1,0.7-0.1,1.1c0,0.3-0.1,0.6-0.1,0.9c0,0.3-0.1,0.5-0.3,0.7c-0.4,0.4-0.9,0.6-1.5,0.6
				c-0.6,0-1.1-0.1-1.6-0.4c-0.5-0.3-0.7-0.8-0.7-1.5c0-0.3,0-0.7,0.1-1c0-0.3,0.1-0.7,0.1-1c0.1-0.7,0.2-1.5,0.2-2.3
				c0.1-0.8,0.2-1.5,0.3-2.3c0.5-3.1,1.1-6.3,1.8-9.6c-0.2,0.2-0.5,0.4-0.7,0.6c-0.2,0.2-0.5,0.3-0.8,0.5c-0.7,0.3-1.4,0.4-2.1,0.4
				c-0.7,0-1.4-0.2-1.9-0.7c-0.7-0.6-1.2-1.2-1.4-2.1c-0.2-0.8-0.3-1.6-0.3-2.4c0-1.1,0.1-2.3,0.4-3.7c0.3-1.4,0.7-2.7,1.1-4.1
				c0.4-1.4,0.9-2.7,1.4-4c0.5-1.3,1-2.4,1.4-3.4c0.2-0.3,0.3-0.7,0.5-1.1c0.2-0.4,0.4-0.7,0.8-0.8c0.6-0.3,1.2-0.2,1.8,0.1
				c0.6,0.3,0.9,0.7,1.2,1.2c0.2,0.5,0.3,1,0.1,1.4c-0.6,1.6-1.1,3-1.6,4.1c-0.4,1.1-0.7,2.1-1,2.8c-0.3,0.8-0.5,1.4-0.7,2
				c-0.2,0.6-0.3,1.1-0.5,1.5c-0.1,0.3-0.2,0.7-0.4,1.3c-0.2,0.6-0.3,1.2-0.3,1.8c-0.1,0.6-0.1,1.1-0.1,1.6c0,0.5,0.2,0.7,0.4,0.7
				c0.1,0,0.3-0.1,0.5-0.2c0.2-0.2,0.4-0.4,0.6-0.7c0.2-0.3,0.4-0.5,0.6-0.8c0.2-0.3,0.4-0.5,0.5-0.8c0.9-1.5,1.8-3.1,2.5-4.7
				c0.7-1.6,1.4-3.2,2-4.8c0.6-1.6,1.2-3.2,1.7-4.8c0.6-1.6,1.2-3.2,1.9-4.8c0.1-0.3,0.2-0.5,0.4-0.7c0.2-0.2,0.4-0.3,0.7-0.4
				c0.6-0.1,1.2,0,1.7,0.3C452,37.1,452.3,37.5,452.6,38.1z"/>
		</g>
		<g id="XMLID_476_">
			<rect id="XMLID_492_" x="204.7" y="5" fill="#3DA5F2" width="7" height="68"/>
			<path id="XMLID_491_" fill="#3DA5F2" d="M234.7,27.6c0,4.6,0,9.2,0,13.6c0,4.4,0.4,8.7,0.4,13.4L225.1,5h-7.5v68h5V53.5
				c0-5.1,0-10.1,0-14.9c0-4.8,0.2-9.7,0.1-14.8L234.6,73h6V5h-6V27.6z"/>
			<path id="XMLID_490_" fill="#3DA5F2" d="M256.3,4.8c-7,0-10.6,3.7-10.6,11.1v10.1c0,1.9,0.2,3.5,0.4,4.9c0.2,1.3,0.9,2.6,1.9,3.9
				c1,1.2,2,2.3,2.9,3.2c0.9,1,1.8,1.9,2.7,2.7c0.9,0.8,1.7,1.7,2.5,2.5c0.8,0.8,1.6,1.8,2.4,2.7c0.4,0.5,0.7,0.9,1,1.3
				c0.3,0.4,0.4,0.9,0.6,1.3c0.2,0.5-0.1,1.1,0,1.7c0.1,0.7-0.4,1.5-0.4,2.5v9.6c0,1.6,0.1,2.9-0.6,3.7c-0.7,0.8-1.5,1.3-3.1,1.3
				c-1.6,0-2.7-0.5-3.3-1.6c-0.6-1.1-1-2.5-1-4.3V48h-6v14.4c0,3.6,0.9,6.4,2.6,8.3c1.7,1.9,4.3,2.9,8,2.9c3.8,0,6.4-1,8-2.9
				c1.6-1.9,2.4-4.7,2.4-8.3v-9.7c0-1.3,0.1-2.5,0-3.5c-0.1-1-0.2-2-0.4-2.8c-0.2-0.8-0.5-1.6-0.9-2.3c-0.4-0.7-0.9-1.4-1.5-2.1
				c-1.7-2.1-3.4-3.9-5.2-5.5c-1.7-1.6-3.3-3.4-5-5.5c-0.6-0.8-0.9-1.5-1.1-2.1c-0.2-0.7-0.1-1.7-0.1-3.1v-10c0-3.2,1.4-4.8,4.3-4.8
				c1.7,0,2.9,0.5,3.4,1.6c0.6,1,1.3,2.4,1.3,4.1V28h5V15.9c0-3.8-0.9-6.6-2.4-8.4C262.8,5.7,260,4.8,256.3,4.8z"/>
			<path id="XMLID_489_" fill="#3DA5F2" d="M285.7,62.1c0,3.5-1.1,5.3-4,5.3c-2.9,0-4-1.8-4-5.3V5h-6v57.1c0,7.6,3.5,11.5,10.5,11.5
				c7,0,10.5-3.8,10.5-11.5V5h-7V62.1z"/>
			<g id="XMLID_484_">
				<g id="XMLID_485_">
					<path id="XMLID_486_" fill="#3DA5F2" d="M317.8,56.9c-0.9-5.3-2-10.7-3.1-16.2c3.3-1.7,5-5.2,5-10.1V17.2c0-4.4-1-7.6-2.9-9.4
						C314.8,6,311.9,5,307.9,5h-10.3v68h6V42h3.6c0.3,0,0.5,0,0.7,0c0.2,0,0.5-0.1,0.7-0.2c0.9,5.1,1.8,10.6,2.5,15.6
						c0.8,5,1.5,9.6,2.2,15.6h6.8C319.5,67,318.7,62.2,317.8,56.9z M312.7,30.7c0,1.9-0.1,3.2-0.9,4.1c-0.8,0.9-1.8,1.2-3.8,1.2
						h-4.4V11h4.3c2.2,0,3.3,0.7,4,1.7c0.7,1,0.7,2.9,0.7,5.4V30.7z"/>
				</g>
			</g>
			<path id="XMLID_481_" fill="#3DA5F2" d="M340.3,5H333l-9.2,68h6.1l1.5-11h10.1l1.5,10.9c0.2-0.3,0.4-0.8,0.5-1.1
				c1.5-2.6,3.1-5.2,4.6-7.8L340.3,5z M332,56c0.8-6,1.5-11.6,2.2-17.3c0.7-5.6,1.5-11.4,2.2-17.4c0.7,5.9,1.3,11.9,2,17.5
				c0.7,5.6,1.4,11.2,2.1,17.2H332z"/>
			<path id="XMLID_480_" fill="#3DA5F2" d="M356,52.6c0.7-0.2,1.7-0.2,2.7-0.2c0-4.8,0-9.4,0-13.9c0-4.8-0.1-9.9-0.2-15l9.6,40.9
				c1.4-1.3,3-2.2,4.8-2.7c0,0,0,0,0.1,0c1-0.3,1.7-0.4,2.7-0.4c0.1-0.1,0-0.2,0-0.3V5h-5v22.6c0,4.6,0,9.2,0,13.6
				c0,4.4,0.1,8.7,0.1,13.4L360.5,5h-7.8v49.5C353.7,53.6,354.8,52.9,356,52.6z"/>
			<path id="XMLID_479_" fill="#3DA5F2" d="M383.3,61.1c0.3-0.4,0.6-0.8,0.9-1.2c0.6-0.8,1.4-1.7,2.3-2.5c0.4-0.4,0.2-0.7,1.2-1v-40
				c0-3.5,1.5-5.2,4.4-5.2c1.6,0,2.5,0.4,3.1,1.3c0.6,0.8,0.5,2.2,0.5,4V28h6V16.2c0-7.6-3-11.5-9.6-11.5c-7.1,0-10.4,3.9-10.4,11.6
				v43.8c0,0.2,0.9,0.4,1.4,0.7C383.2,60.9,383.1,61,383.3,61.1z"/>
			<path id="XMLID_478_" fill="#3DA5F2" d="M398.9,54c0-0.1,0.1-0.2,0.1-0.2c0.1-0.3,0.2-0.6,0.4-0.8c0.3-0.6,0.7-1.2,1.2-1.6
				c0,0,0.1-0.1,0.1-0.1c0.3-0.3,1-0.5,1-0.8V48h-6v5.8c1,0.2,1.9,0.6,2.7,1.1C398.5,54.6,398.8,54.3,398.9,54z"/>
			<path id="XMLID_477_" fill="#3DA5F2" d="M409.8,46.6c1.4-0.8,2.9-1.1,3.9-1.1V42h7v-7h-7V12h11V5h-18v43.6c1-0.7,1.9-1.4,2.9-2
				C409.6,46.6,409.8,46.6,409.8,46.6z"/>
		</g>
		<g id="XMLID_198_">
			<path id="XMLID_209_" fill="#3DA5F2" d="M27.7,80.6c0-1.6,0.1-3,0.1-4c-0.1-1-0.2-1.9-0.4-2.7c-0.3-0.8-0.6-1.5-1-2.1
				c-0.4-0.6-0.9-1.4-1.5-2.1c-1.3-1.5-2.6-3-3.9-4.3c-1.3-1.3-2.6-2.7-4-4c-1.4-1.3-2.8-2.8-4.2-4.3c-1.4-1.5-2.9-3.2-4.4-5.1
				c-1.7-2-2.8-4-3.1-6.1c-0.3-2.1-0.5-4.7-0.5-7.7V22.3c0-11.7,5.6-17.5,16.6-17.5c5.9,0,10.3,1.4,12.7,4.3
				c2.4,2.9,3.8,7.3,3.8,13.2V41h-10V23.6c0-2.7-0.1-4.8-1-6.4c-0.9-1.6-3.1-2.5-5.7-2.5c-4.6,0-7.2,2.5-7.2,7.6V38
				c0,2.2,0.7,3.9,1,4.9c0.3,1,1.2,2.2,2.1,3.4c2.6,3.3,5.4,6.1,8.1,8.6c2.7,2.5,5.5,5.4,8.3,8.6c0.9,1.1,1.8,2.2,2.4,3.4
				c0.6,1.1,1.1,2.3,1.4,3.6c0.3,1.3,0.5,2.8,0.6,4.4c0.1,1.6,0.1,3.5,0.1,5.5v15.2c0,5.7-1.2,10-3.7,13c-2.5,3-6.7,4.5-12.7,4.5
				c-5.8,0-10-1.5-12.6-4.5c-2.6-3-4-7.4-4-13V73h9v21.3c0,2.8,0.8,5,1.8,6.7c1,1.7,2.9,2.6,5.5,2.6c2.5,0,4.2-0.7,5.2-2
				c1.1-1.3,1.5-3.3,1.5-5.9V80.6z"/>
			<path id="XMLID_206_" fill="#3DA5F2" d="M71.6,112l-2.3-17H53.4l-2.3,17h-9.5L56.1,6h11.5l13.8,106H71.6z M68.1,85
				c-1.1-9-2.2-18-3.4-26.9c-1.1-8.9-2.2-18-3.2-27.3c-1.1,9.4-2.3,18.4-3.4,27.3C57,67,55.8,76,54.6,85H68.1z"/>
			<path id="XMLID_204_" fill="#3DA5F2" d="M87.7,112V6h30v10h-20v37h12v10h-12v49H87.7z"/>
			<path id="XMLID_202_" fill="#3DA5F2" d="M121.7,112V6h29v10h-19v37h13v9h-13v41h19v9H121.7z"/>
			<path id="XMLID_199_" fill="#3DA5F2" d="M183.8,112c-1.1-9-2.3-16.4-3.5-24.3c-1.2-7.9-2.5-16.3-4-24.4c-0.4,0.1-0.8-0.3-1.2-0.3
				c-0.3,0-0.7,0-1.2,0h-6.4v49h-9V6h16.4c6.2,0,10.4,1.4,13.4,4.3c3.1,2.9,4.2,7.8,4.2,14.7v21.2c0,7.7-2.2,12.9-7.4,15.6
				c1.7,8.6,3.5,17,5,25.3c1.5,8.3,3.1,15.9,4.3,24.9H183.8z M183.7,26.3c0-3.9-0.6-6.5-1.7-8.1c-1.1-1.5-3.4-2.2-6.9-2.2h-7.4v39
				h7.5c3,0,5.2-0.7,6.5-2.1c1.3-1.4,2-3.6,2-6.6V26.3z"/>
		</g>
	</g>
</g>
</svg>
