<?xml version="1.0" encoding="utf-8"?>
<!-- Generator: Adobe Illustrator 19.0.0, SVG Export Plug-In . SVG Version: 6.00 Build 0)  -->
<svg version="1.1" id="Layer_1" xmlns="http://www.w3.org/2000/svg" xmlns:xlink="http://www.w3.org/1999/xlink" x="0px" y="0px"
	 viewBox="0 0 595.7 118" enable-background="new 0 0 595.7 118" xml:space="preserve">
<g id="XMLID_1_">
	<g id="XMLID_195_">
		<g id="XMLID_493_">
			<path id="XMLID_506_" fill="#FFFFFF" d="M497.5,94.5c-0.4-0.2-0.8-0.5-1-0.9c-0.3-0.7-0.7-1.6-0.9-2.5c-0.3-0.9-0.5-1.8-0.7-2.8
				c-0.2-0.9-0.4-1.9-0.6-2.7c-0.2-0.9-0.3-1.7-0.4-2.4c-1.9,0.4-3.6,0.8-5.3,1.1c-1.7,0.4-3.3,0.8-4.9,1.2c-1.8,3-3.7,6-5.6,8.9
				c-1.9,2.9-3.9,5.8-6.1,8.6c-0.6,0.8-1.3,1.7-2,2.5c-0.7,0.8-1.4,1.6-2.1,2.4c-0.3,0.4-0.6,0.7-0.9,0.9c-0.3,0.2-0.7,0.4-1.2,0.3
				c-0.4-0.1-0.7-0.2-1.1-0.4c-0.4-0.2-0.7-0.5-1-0.8c-0.3-0.3-0.5-0.7-0.6-1c-0.1-0.4-0.1-0.8,0.1-1.2c0.1-0.3,0.2-0.5,0.4-0.6
				c0.2-0.2,0.3-0.3,0.4-0.5c1.4-1.6,2.7-3.2,3.9-4.9c1.2-1.7,2.3-3.2,3.4-4.7c1-1.5,2-2.9,2.8-4.2c0.8-1.3,1.6-2.4,2.2-3.3
				c-1.8,0.5-3.2,0.9-4.2,1.3c-1,0.3-1.9,0.6-2.8,0.7c-0.2,0-0.4,0-0.6-0.1c-0.2-0.1-0.4-0.3-0.5-0.4c-0.4-0.4-0.7-0.9-0.8-1.5
				c-0.2-0.6-0.2-1.2-0.2-1.8c0.1-0.6,0.3-0.9,0.7-1.1c0.3-0.2,0.7-0.3,1.2-0.4c1.7-0.5,3.4-0.9,5.2-1.4c1.7-0.4,3.8-0.8,6.1-1.2
				c2.1-3.2,4.1-6.4,6-9.6c1.9-3.2,3.8-6.4,5.6-9.7c0.8-1.5,1.5-2.6,2-3.5c0.5-0.9,0.9-1.5,1.1-2c0.3-0.4,0.4-0.7,0.5-0.9
				c0.1-0.1,0.2-0.3,0.3-0.4c0.2-0.3,0.5-0.5,0.9-0.6c0.4-0.1,0.7-0.1,1.1-0.1c0.4,0,0.8,0.1,1.1,0.2c0.4,0.1,0.6,0.2,0.8,0.3
				c0.6,0.3,0.9,0.6,1,1.1c0,0.5,0,1-0.2,1.5c-0.2,0.5-0.4,1.1-0.5,1.6c-0.1,0.6-0.2,1.1-0.3,1.7c-0.5,3-0.9,6-1.1,9.1
				c-0.2,3.1-0.2,6.1,0.1,9.2c0.2,1.5,0.4,3,0.6,4.5c0.3,1.5,0.6,2.9,1,4.3c0.2,0.6,0.4,1.3,0.8,1.9c0.4,0.7,0.5,1.3,0.5,1.9
				c0,0.5-0.2,0.9-0.4,1.2c-0.3,0.3-0.6,0.6-1,0.8c-0.4,0.2-0.8,0.3-1.3,0.3C498.2,94.6,497.8,94.6,497.5,94.5z M493.6,79.7
				c0-2.4,0-4.8,0.2-7.2c0.1-2.4,0.4-4.8,0.8-7.2c-1.2,2.5-2.4,4.9-3.7,7.3c-1.3,2.4-2.7,5-4.3,7.8c1-0.2,2-0.3,3.1-0.4
				C490.7,80,492,79.9,493.6,79.7z"/>
			<path id="XMLID_503_" fill="#FFFFFF" d="M521,63.9c0.1,0.3,0.1,0.6,0,0.8c-0.1,0.3-0.3,0.5-0.4,0.8c-0.7,1.7-1.2,3.1-1.5,4
				c-0.3,0.9-0.6,1.8-0.8,2.5c-0.5,1.6-1,3.2-1.4,4.8c-0.4,1.6-0.9,3.2-1.3,4.8c-0.4,1.6-0.8,3.3-1.2,4.9c-0.4,1.6-0.8,3.3-1.1,4.9
				c-0.3,1.6-0.6,3.1-0.9,4.7c-0.3,1.6-0.5,3.1-0.7,4.7c-0.1,0.4-0.1,0.7-0.1,1.1c0,0.4-0.1,0.7-0.1,1.1c0,0.3-0.1,0.6-0.1,0.9
				c0,0.3-0.1,0.5-0.3,0.7c-0.4,0.4-0.9,0.6-1.5,0.6c-0.6,0-1.1-0.1-1.6-0.4c-0.5-0.3-0.7-0.8-0.7-1.5c0-0.3,0-0.7,0.1-1
				c0-0.3,0.1-0.7,0.1-1c0.1-0.7,0.1-1.5,0.2-2.3c0.1-0.8,0.2-1.5,0.3-2.3c0.5-3.3,1.1-6.5,1.9-9.7c-0.6,0.6-1.3,1-2,1.4
				c-0.7,0.3-1.5,0.5-2.3,0.4c-1-0.1-1.8-0.5-2.4-1.2c-0.7-0.8-1.1-1.7-1.2-2.8c-0.1-1.1-0.1-2.1,0-3.1c0.3-1.9,0.9-3.9,1.6-5.7
				c0.7-1.9,1.6-3.6,2.5-5.2c0.9-1.6,2-3,3.1-4.2c1.2-1.3,2.5-2.1,3.9-2.6c0.6-0.2,1.3-0.2,1.9-0.2c0.6,0,1.2,0.3,1.7,0.6
				c0.4-0.8,0.7-1.3,0.9-1.6c0.2-0.3,0.4-0.4,0.8-0.5c0.6-0.1,1.1,0,1.7,0.3C520.5,63,520.8,63.4,521,63.9z M510,72.2
				c-1,1.7-1.8,3.3-2.4,5c-0.7,1.7-1.2,3.4-1.5,5.1c-0.3,1.8-0.2,2.7,0.3,2.7c0.5,0,1.3-0.7,2.3-2c1.5-2.4,2.7-4.8,3.7-7.3
				c0.9-2.5,1.9-5,2.7-7.5c0-0.2-0.1-0.5-0.2-0.7c-0.1-0.2-0.3-0.3-0.6-0.2c-0.4,0.2-0.8,0.5-1.2,0.8c-0.4,0.4-0.8,0.8-1.1,1.3
				c-0.4,0.5-0.7,1-1,1.5C510.5,71.3,510.2,71.8,510,72.2z"/>
			<path id="XMLID_500_" fill="#FFFFFF" d="M524.2,79.2c-1.1-0.7-1.8-1.6-2.2-2.7c-0.4-1.2-0.6-2.3-0.6-3.6c0-1.2,0.2-2.3,0.5-3.4
				c0.3-1.1,0.6-2.2,1.1-3.2c0.4-1,0.9-2,1.5-3c0.6-1,1.2-1.8,1.8-2.7c0.5-0.6,1.1-1.3,1.8-1.9c0.7-0.7,1.5-1.3,2.4-1.7
				c0.9-0.5,1.7-0.8,2.6-0.9c0.9-0.1,1.7,0.1,2.4,0.7c0.7,0.5,1,1.1,1.1,1.9c0.1,0.8,0.1,1.6,0,2.4c-0.3,1.6-0.8,3.1-1.6,4.6
				c-0.8,1.5-1.8,2.8-3,3.9c-0.9,0.8-1.8,1.5-2.9,2.1c-1,0.6-2.1,0.8-3.3,0.9c-0.1,0.5-0.1,0.9,0,1.4c0,0.4,0.1,0.8,0.3,1.2
				c0.2,0.3,0.4,0.6,0.8,0.8c0.3,0.2,0.8,0.3,1.4,0.3c1,0,2.1-0.5,3.1-1.4c1-0.9,1.9-2,2.8-3.2c0.9-1.2,1.6-2.5,2.3-3.7
				c0.6-1.3,1.1-2.2,1.5-3c0.1-0.4,0.3-0.7,0.4-1.2c0.1-0.4,0.4-0.8,0.6-1c0.3-0.2,0.6-0.4,0.9-0.4c0.3,0,0.6,0,0.9,0.1
				c0.3,0.1,0.6,0.3,0.8,0.5c0.2,0.2,0.3,0.5,0.3,0.8c0,0.4-0.1,0.8-0.2,1.2c-0.2,0.4-0.3,0.8-0.5,1.2c-0.8,1.9-1.5,3.2-2,4.1
				c-0.5,0.9-1,1.7-1.4,2.4c-0.6,1-1.5,2.1-2.5,3.2c-1,1.1-2.1,2-3.3,2.8c-1.2,0.8-2.4,1.3-3.7,1.5C526.7,80.2,525.5,80,524.2,79.2z
				 M527.9,68.4c1.2-0.8,2.3-1.8,3.1-3c0.8-1.3,1.4-2.5,1.8-3.7c0.2-0.4,0.2-0.9,0.2-1.3c0-0.4-0.1-0.6-0.4-0.7
				c-0.8,0.6-1.6,1.4-2.2,2.2c-0.6,0.8-1.2,1.7-1.7,2.5c-0.9,1.5-1.6,3-2.1,4.5C527,68.8,527.4,68.6,527.9,68.4z"/>
			<path id="XMLID_498_" fill="#FFFFFF" d="M552,70.2c-0.8,0.4-1.6,0.5-2.2,0.4c-0.7-0.1-1.2-0.4-1.7-0.9c-0.5-0.5-0.8-1.1-1-1.8
				c-0.2-0.7-0.3-1.4-0.3-2.1c0-1.7,0.4-3.3,1-4.8c0.6-1.6,1.2-3.1,1.8-4.6c0.1-0.2,0.2-0.6,0.5-1.1c0.2-0.5,0.4-1.1,0.6-1.6
				c0.2-0.5,0.2-0.9,0.2-1.1c0-0.2-0.2-0.2-0.6,0.1c-0.7,0.6-1.4,1.3-2,2.1c-0.6,0.8-1.2,1.5-1.7,2.3c-0.6,1-1.1,1.9-1.7,2.9
				c-0.5,1-1,2-1.5,3c-0.3,0.6-0.5,1.3-0.8,2.1c-0.3,0.8-0.5,1.6-0.8,2.5c-0.2,0.9-0.5,1.7-0.7,2.6c-0.2,0.9-0.4,1.7-0.6,2.4
				c-0.1,0.3-0.1,0.6-0.1,0.9c0,0.3-0.1,0.6-0.4,0.8c-0.5,0.4-1,0.6-1.7,0.5c-0.7-0.1-1.2-0.3-1.6-0.8c-0.2-0.2-0.3-0.5-0.3-0.8
				c0-0.3,0-0.6,0.1-0.9l0.4-2.6c0.2-0.9,0.3-1.9,0.6-2.9c0.2-1,0.5-2.1,0.8-3.3c0.3-1.2,0.7-2.6,1.2-4.1c0.5-1.5,1.1-3.3,1.8-5.3
				c0.1-0.2,0.2-0.4,0.3-0.6c0.1-0.2,0.2-0.4,0.4-0.5c0.5-0.5,1.1-0.6,1.9-0.3c0.7,0.3,1.2,0.7,1.6,1.3c0.7-1,1.4-1.9,2.2-2.7
				c0.8-0.8,1.7-1.6,2.8-2.3c0.8-0.4,1.5-0.7,2-0.6c0.6,0,1.1,0.2,1.5,0.5c0.5,0.3,0.9,0.7,1.1,1.1c0.2,0.5,0.3,0.9,0.4,1.5
				c0,0.5,0,1-0.1,1.6c-0.1,0.5-0.2,1-0.3,1.5c-0.5,1.8-1.1,3.4-1.8,5c-0.7,1.6-1.3,3.2-1.7,4.8c-0.1,0.3-0.1,0.6-0.2,1
				c-0.1,0.4-0.1,0.7-0.1,1c0,0.3,0,0.5,0.1,0.6c0.1,0.1,0.3,0.1,0.5-0.2c0.4-0.4,0.8-0.8,1.2-1.4c0.4-0.6,0.8-1.2,1.1-1.8
				c0.3-0.6,0.6-1.3,0.9-2c0.3-0.7,0.6-1.3,0.8-1.9l1-2.4c0.1-0.3,0.3-0.7,0.4-1c0.1-0.4,0.3-0.7,0.6-1c0.5-0.5,1.1-0.6,1.7-0.4
				c0.6,0.2,1,0.6,1.2,1.3c0.1,0.4,0,0.8-0.1,1.1c-0.1,0.3-0.3,0.7-0.4,1l-0.9,2.3c-0.3,0.7-0.6,1.4-0.9,2.1c-0.3,0.7-0.7,1.4-1,2.1
				c-0.6,1.2-1.3,2.3-2.1,3.4C554.3,68.8,553.3,69.6,552,70.2z"/>
			<path id="XMLID_496_" fill="#FFFFFF" d="M565.7,42.4c0.8-0.3,1.6-0.4,2.5-0.4c0.8,0,1.5,0.4,2.1,1.1c0.3,0.4,0.5,0.8,0.7,1.2
				c0.1,0.5,0.2,0.9,0.2,1.4c0,0.5,0,1-0.1,1.5c-0.1,0.5-0.2,1-0.3,1.4c-0.1,0.5-0.3,1-0.4,1.5c-0.2,0.5-0.3,0.9-0.5,1.4
				c-0.2,0.3-0.4,0.7-0.6,1.1c-0.2,0.4-0.5,0.7-1,0.7c-0.4,0.1-0.8,0.1-1.1-0.1c-0.4-0.1-0.7-0.3-1-0.6c-0.2-0.2-0.4-0.4-0.6-0.7
				c-0.2-0.3-0.2-0.6-0.2-0.9c0-0.2,0.1-0.4,0.2-0.7c0.1-0.2,0.3-0.5,0.4-0.7c0.3-0.5,0.6-1,0.8-1.5c0.2-0.5,0.4-0.9,0.5-1.3
				c0.1-0.4,0.2-0.7,0.2-1c0-0.3,0-0.4-0.2-0.4c-0.3,0-0.6,0.2-1,0.6c-0.4,0.4-0.8,0.9-1.2,1.5c-0.4,0.6-0.7,1.1-1,1.7
				c-0.3,0.5-0.5,0.9-0.6,1.1c-0.8,1.5-1.4,3.2-1.8,4.9c-0.2,0.7-0.3,1.3-0.4,2c-0.1,0.7-0.1,1.3-0.1,2c0.1,0.6,0.2,1.1,0.4,1.6
				c0.2,0.5,0.7,0.8,1.3,0.9c0.5,0.1,1.1-0.1,1.6-0.4c0.6-0.4,1-0.7,1.4-0.9c1.2-0.9,2.3-2.1,3.4-3.7c1.1-1.6,2.2-3.7,3.3-6.3
				c0.1-0.4,0.3-0.7,0.4-1.2c0.1-0.4,0.4-0.8,0.6-1c0.3-0.2,0.6-0.4,0.9-0.4c0.3,0,0.6,0,0.9,0.1c0.3,0.1,0.6,0.3,0.8,0.6
				c0.2,0.3,0.3,0.6,0.4,1c0,0.4-0.1,0.8-0.3,1.1c-0.2,0.4-0.4,0.7-0.5,1.1c-0.5,0.9-0.8,1.7-1.2,2.4c-0.3,0.7-0.6,1.2-0.9,1.7
				c-0.3,0.5-0.5,0.9-0.7,1.3c-0.2,0.4-0.4,0.7-0.7,1.1c-0.6,1-1.4,2-2.5,3.1c-1,1.1-2.1,2-3.3,2.8c-1.2,0.8-2.4,1.3-3.7,1.5
				c-1.3,0.2-2.5-0.2-3.6-1.1c-1-0.8-1.6-1.8-1.9-3.1c-0.3-1.2-0.4-2.4-0.4-3.6c0.1-2,0.5-3.9,1.2-5.9c0.7-1.9,1.6-3.7,2.7-5.4
				c0.6-0.8,1.2-1.6,2-2.4C563.8,43.3,564.7,42.8,565.7,42.4z"/>
			<path id="XMLID_494_" fill="#FFFFFF" d="M590.9,35.3c0.1,0.1,0.1,0.3,0.1,0.5c0,0.2-0.1,0.4-0.2,0.6c-0.1,0.3-0.3,0.6-0.4,1
				c-0.2,0.4-0.4,1-0.6,1.6c-1,2.5-1.8,5-2.5,7.3c-0.7,2.3-1.3,4.5-1.8,6.8c-0.9,3.5-1.7,6.8-2.4,9.9c-0.7,3.1-1.2,6.2-1.6,9.3
				c-0.1,0.4-0.1,0.7-0.1,1.1c0,0.4-0.1,0.7-0.1,1.1c0,0.3-0.1,0.6-0.1,0.9c0,0.3-0.1,0.5-0.3,0.7c-0.4,0.4-0.9,0.6-1.5,0.6
				c-0.6,0-1.1-0.1-1.6-0.4c-0.5-0.3-0.7-0.8-0.7-1.5c0-0.3,0-0.7,0.1-1c0-0.3,0.1-0.7,0.1-1c0.1-0.7,0.2-1.5,0.2-2.3
				c0.1-0.8,0.2-1.5,0.3-2.3c0.5-3.1,1.1-6.3,1.8-9.6c-0.2,0.2-0.5,0.4-0.7,0.6c-0.2,0.2-0.5,0.3-0.8,0.5c-0.7,0.3-1.4,0.4-2.1,0.4
				c-0.7,0-1.4-0.2-1.9-0.7c-0.7-0.6-1.2-1.2-1.4-2.1c-0.2-0.8-0.3-1.6-0.3-2.4c0-1.1,0.1-2.3,0.4-3.7c0.3-1.4,0.7-2.7,1.1-4.1
				c0.4-1.4,0.9-2.7,1.4-4c0.5-1.3,1-2.4,1.4-3.4c0.2-0.3,0.3-0.7,0.5-1.1c0.2-0.4,0.4-0.7,0.8-0.8c0.6-0.3,1.2-0.2,1.8,0.1
				c0.6,0.3,0.9,0.7,1.2,1.2c0.2,0.5,0.3,1,0.1,1.4c-0.6,1.6-1.1,3-1.6,4.1c-0.4,1.1-0.7,2.1-1,2.8c-0.3,0.8-0.5,1.4-0.7,2
				c-0.2,0.6-0.3,1.1-0.5,1.5c-0.1,0.3-0.2,0.7-0.4,1.3c-0.2,0.6-0.3,1.2-0.3,1.8c-0.1,0.6-0.1,1.1-0.1,1.6c0,0.5,0.2,0.7,0.4,0.7
				c0.1,0,0.3-0.1,0.5-0.2c0.2-0.2,0.4-0.4,0.6-0.7c0.2-0.3,0.4-0.5,0.6-0.8c0.2-0.3,0.4-0.5,0.5-0.8c0.9-1.5,1.8-3.1,2.5-4.7
				c0.7-1.6,1.4-3.2,2-4.8c0.6-1.6,1.2-3.2,1.7-4.8c0.6-1.6,1.2-3.2,1.9-4.8c0.1-0.3,0.2-0.5,0.4-0.7c0.2-0.2,0.4-0.3,0.7-0.4
				c0.6-0.1,1.2,0,1.7,0.3C590.2,34.3,590.6,34.8,590.9,35.3z"/>
		</g>
		<g id="XMLID_476_">
			<rect id="XMLID_492_" x="343" y="2" fill="#FFFFFF" width="7" height="68"/>
			<path id="XMLID_491_" fill="#FFFFFF" d="M373,24.8c0,4.6,0,9.2,0,13.6c0,4.4,0.4,8.6,0.4,13.3L363.5,2H356v68h5V50.7
				c0-5.1,0-10.1,0-14.9c0-4.8,0.2-9.8,0.1-14.9L373,70h6V2h-6V24.8z"/>
			<path id="XMLID_490_" fill="#FFFFFF" d="M394.6,2c-7,0-10.6,3.7-10.6,11.1v10.1c0,1.9,0.2,3.5,0.4,4.9c0.2,1.3,0.9,2.6,1.9,3.9
				c1,1.2,2,2.3,2.9,3.2c0.9,1,1.8,1.9,2.7,2.7c0.9,0.8,1.7,1.7,2.5,2.5c0.8,0.8,1.6,1.8,2.4,2.7c0.4,0.5,0.7,0.9,1,1.3
				c0.3,0.4,0.4,0.9,0.6,1.3c0.2,0.5-0.1,1.1,0,1.7c0.1,0.7-0.4,1.5-0.4,2.5v9.6c0,1.6,0.1,2.9-0.6,3.7c-0.7,0.8-1.5,1.3-3.1,1.3
				c-1.6,0-2.7-0.5-3.3-1.6c-0.6-1.1-1-2.5-1-4.3V45h-6v14.7c0,3.6,0.9,6.4,2.6,8.3c1.7,1.9,4.3,2.9,8,2.9c3.8,0,6.4-1,8-2.9
				c1.6-1.9,2.4-4.7,2.4-8.3V50c0-1.3,0.1-2.5,0-3.5c-0.1-1-0.2-2-0.4-2.8c-0.2-0.8-0.5-1.6-0.9-2.3c-0.4-0.7-0.9-1.4-1.5-2.1
				c-1.7-2.1-3.4-3.9-5.2-5.5c-1.7-1.6-3.3-3.4-5-5.5c-0.6-0.8-0.9-1.5-1.1-2.1c-0.2-0.7-0.1-1.7-0.1-3.1v-10c0-3.2,1.4-4.8,4.3-4.8
				c1.7,0,2.9,0.5,3.4,1.6c0.6,1,1.3,2.4,1.3,4.1V25h5V13.1c0-3.8-0.9-6.6-2.4-8.4C401.1,2.9,398.4,2,394.6,2z"/>
			<path id="XMLID_489_" fill="#FFFFFF" d="M424,59.3c0,3.5-1.1,5.3-4,5.3c-2.9,0-4-1.8-4-5.3V2h-6v57.3c0,7.6,3.5,11.5,10.5,11.5
				S431,67,431,59.3V2h-7V59.3z"/>
			<g id="XMLID_484_">
				<g id="XMLID_485_">
					<path id="XMLID_486_" fill="#FFFFFF" d="M456.1,54c-0.9-5.3-2-10.7-3.1-16.1c3.3-1.7,5-5.1,5-10V14.5c0-4.4-1-7.7-2.9-9.5
						c-1.9-1.8-4.9-2.9-8.8-2.9H436v68h6V39h3.6c0.3,0,0.5,0,0.7,0c0.2,0,0.5,0,0.7,0c0.9,5.1,1.8,10.6,2.5,15.5
						c0.8,5,1.5,9.5,2.2,15.5h6.8C457.8,64,457,59.3,456.1,54z M451,28c0,1.9-0.1,3.1-0.9,4s-1.8,1.1-3.8,1.1H442V8h4.3
						c2.2,0,3.3,0.8,4,1.8c0.7,1,0.7,3,0.7,5.5V28z"/>
				</g>
			</g>
			<path id="XMLID_481_" fill="#FFFFFF" d="M478.6,2h-7.3l-9.2,68h6.1l1.5-11h10.1l1.5,11c0.2-0.3,0.4-0.7,0.5-1
				c1.5-2.6,3.1-5.3,4.6-7.9L478.6,2z M470.4,53c0.8-6,1.5-11.5,2.2-17.2c0.7-5.6,1.5-11.4,2.2-17.3c0.7,5.9,1.3,11.8,2,17.4
				c0.7,5.6,1.4,11.1,2.1,17.1H470.4z"/>
			<path id="XMLID_480_" fill="#FFFFFF" d="M494.3,49.9c0.7-0.2,1.7-0.2,2.7-0.2c0-4.8,0-9.4,0-13.9c0-4.8-0.1-9.9-0.2-15l9.6,40.9
				c1.4-1.3,3-2.2,4.8-2.7c0,0,0,0,0.1,0c1-0.3,1.7-0.4,2.7-0.4c0.1-0.1,0-0.2,0-0.3V2h-5v22.8c0,4.6,0,9.2,0,13.6
				c0,4.4,0.1,8.6,0.1,13.3L498.8,2H491v49.8C492,50.8,493.1,50.2,494.3,49.9z"/>
			<path id="XMLID_479_" fill="#FFFFFF" d="M521.6,58.3c0.3-0.4,0.6-0.8,0.9-1.2c0.6-0.8,1.4-1.7,2.3-2.5c0.4-0.4,0.2-0.7,1.2-1v-40
				c0-3.5,1.5-5.2,4.4-5.2c1.6,0,2.5,0.4,3.1,1.3c0.6,0.8,0.5,2.2,0.5,4V25h6V13.4c0-7.6-3-11.5-9.6-11.5C523.3,2,520,5.9,520,13.6
				v43.8c0,0.2,0.9,0.4,1.4,0.7C521.5,58.1,521.5,58.2,521.6,58.3z"/>
			<path id="XMLID_478_" fill="#FFFFFF" d="M537.2,51.2c0-0.1,0.1-0.2,0.1-0.2c0.1-0.3,0.2-0.6,0.4-0.8c0.3-0.6,0.7-1.2,1.2-1.6
				c0,0,0.1-0.1,0.1-0.1c0.3-0.3,1-0.5,1-0.8V45h-6v6.1c1,0.2,1.9,0.6,2.7,1.1C536.8,51.9,537.1,51.5,537.2,51.2z"/>
			<path id="XMLID_477_" fill="#FFFFFF" d="M548.1,43.8c1.4-0.8,2.9-1.1,3.9-1.1V39h7v-7h-7V9h11V2h-18v43.9c1-0.7,1.9-1.4,2.9-2
				C547.9,43.8,548.1,43.8,548.1,43.8z"/>
		</g>
		<g id="XMLID_198_">
			<path id="XMLID_209_" fill="#FFFFFF" d="M166,77.8c0-1.6,0.1-3,0.1-4c-0.1-1-0.2-1.9-0.4-2.7c-0.3-0.8-0.6-1.5-1-2.1
				c-0.4-0.6-0.9-1.4-1.5-2.1c-1.3-1.5-2.6-3-3.9-4.3c-1.3-1.3-2.6-2.7-4-4c-1.4-1.3-2.8-2.8-4.2-4.3c-1.4-1.5-2.9-3.2-4.4-5.1
				c-1.7-2-2.8-4-3.1-6.1c-0.3-2.1-0.5-4.7-0.5-7.7V19.5C143,7.8,148.6,2,159.6,2c5.9,0,10.3,1.4,12.7,4.3c2.4,2.9,3.8,7.3,3.8,13.2
				V38h-10V20.8c0-2.7-0.1-4.8-1-6.4c-0.9-1.6-3.1-2.5-5.7-2.5c-4.6,0-7.2,2.5-7.2,7.6v15.7c0,2.2,0.7,3.9,1,4.9
				c0.3,1,1.2,2.2,2.1,3.4c2.6,3.3,5.4,6.1,8.1,8.6c2.7,2.5,5.5,5.4,8.3,8.6c0.9,1.1,1.8,2.2,2.4,3.4c0.6,1.1,1.1,2.3,1.4,3.6
				c0.3,1.3,0.5,2.8,0.6,4.4c0.1,1.6,0.1,3.5,0.1,5.5v15.2c0,5.7-1.2,10-3.7,13c-2.5,3-6.7,4.5-12.7,4.5c-5.8,0-10-1.5-12.6-4.5
				c-2.6-3-4-7.4-4-13V70h9v21.5c0,2.8,0.8,5,1.8,6.7c1,1.7,2.9,2.6,5.5,2.6c2.5,0,4.2-0.7,5.2-2c1.1-1.3,1.5-3.3,1.5-5.9V77.8z"/>
			<path id="XMLID_206_" fill="#FFFFFF" d="M210,109l-2.3-17h-15.9l-2.3,17h-9.5L194.5,3H206l13.8,106H210z M206.5,82
				c-1.1-9-2.2-17.9-3.4-26.8c-1.1-8.9-2.2-17.9-3.2-27.3c-1.1,9.4-2.3,18.3-3.4,27.2c-1.2,8.9-2.3,17.8-3.5,26.8H206.5z"/>
			<path id="XMLID_204_" fill="#FFFFFF" d="M226,109V3h30v10h-20v37h12v10h-12v49H226z"/>
			<path id="XMLID_202_" fill="#FFFFFF" d="M260,109V3h29v10h-19v37h13v9h-13v41h19v9H260z"/>
			<path id="XMLID_199_" fill="#FFFFFF" d="M322.2,109c-1.1-9-2.3-16.3-3.5-24.2c-1.2-7.9-2.5-16.4-4-24.4c-0.4,0.1-0.8-0.4-1.2-0.4
				c-0.3,0-0.7,0-1.2,0H306v49h-9V3h16.4c6.2,0,10.4,1.5,13.4,4.4c3.1,2.9,4.2,7.9,4.2,14.8v21.2c0,7.7-2.2,12.9-7.4,15.6
				c1.7,8.6,3.5,16.9,5,25.2c1.5,8.3,3.1,15.8,4.3,24.8H322.2z M322,23.5c0-3.9-0.6-6.6-1.7-8.2c-1.1-1.5-3.4-2.4-6.9-2.4H306v39
				h7.5c3,0,5.2-0.6,6.5-2c1.3-1.4,2-3.5,2-6.5V23.5z"/>
		</g>
	</g>
	<g id="XMLID_193_">
		<g id="XMLID_510_">
			<path id="XMLID_839_" fill="#FFFFFF" d="M127.3,22.2L106.6,3H66H25.4L4.7,22C20.2,33.3,20.6,48,19,59h36v4H18.4
				c-0.7,3-1.4,6.7-1.7,9.1c-2.3,16.8,11.5,26.3,18.6,27.2C47.7,101,56,106.8,66,116.1V116h0c9.5-9,18.2-15.2,30.8-16.9
				c6.1-0.8,17.4-8.1,18.7-21.1H56v-3h59.6c0-1-0.1-1.7-0.2-2.6C113.8,61.8,105,38.4,127.3,22.2z M99,63H69v-4h30V63z"/>
			<path id="XMLID_840_" fill="#3DA5F2" d="M56,78h59.5c0.1-1,0.2-2,0.1-3H56V78z"/>
			<path id="XMLID_841_" fill="#F2A93D" d="M55,59H19c-0.2,2-0.4,3-0.6,4H55V59z"/>
			<rect id="XMLID_842_" x="69" y="59" fill="#F2A93D" width="30" height="4"/>
		</g>
		<path id="XMLID_846_" fill="#3DA5F2" d="M55.9,71.1v-2c1.8-0.1,2.9-0.3,3.1-0.5c0.2-0.3,0.4-0.9,0.4-1.9c0.1-2.1,0.2-6,0.2-11.7
			c0-2.2,0-5.4-0.1-9.6c0-2.8-0.1-4.4-0.2-4.7c-0.1-0.3-0.2-0.5-0.4-0.6c-0.3-0.2-1.3-0.3-3-0.5v-2c2.7,0.1,4.8,0.2,6.3,0.2
			c2.5,0,4.8-0.1,6.8-0.2v2c-1.8,0.1-2.8,0.3-3.1,0.5c-0.2,0.2-0.4,0.7-0.5,1.5c-0.1,1.5-0.2,4.6-0.2,9.3c0,6.2,0,10.5,0.1,13
			c0,2.4,0.2,3.9,0.4,4.4c0.1,0.2,0.2,0.4,0.5,0.5c0.3,0.1,1.2,0.2,2.8,0.4v2"/>
		<path id="XMLID_844_" fill="#F2A93D" d="M34.6,45.2h1.8c0,2.4,0.1,3.7,0.2,4.1c0.1,0.4,0.5,0.9,1.1,1.6c0.7,0.7,1.5,1.2,2.5,1.6
			s2.1,0.6,3.2,0.6c1.9,0,3.4-0.6,4.5-1.8c1.1-1.2,1.7-2.7,1.7-4.5c0-1.6-0.4-2.9-1.1-3.8c-0.8-0.9-2.2-1.5-4.3-1.9
			c-3.1-0.5-5.3-1.1-6.4-1.8c-1.1-0.6-2-1.6-2.6-2.9c-0.6-1.3-0.9-2.8-0.9-4.6c0-3,0.9-5.5,2.6-7.6c1.8-2.1,4.6-3.1,8.4-3.1
			c1.5,0,2.9,0.1,4,0.4c1.2,0.3,2.4,0.7,3.5,1.3l0.2,0.6c-0.2,1-0.4,1.9-0.4,2.7c-0.1,0.8-0.2,2.2-0.2,4.2h-1.7
			c-0.1-2.4-0.2-3.8-0.3-4.1c-0.3-0.5-0.9-1.1-1.9-1.7c-1-0.6-2.2-0.9-3.5-0.9c-1.8,0-3.2,0.5-4.2,1.6c-1,1.1-1.5,2.4-1.5,4.1
			c0,1,0.2,1.9,0.6,2.7c0.4,0.8,1,1.3,1.7,1.7c0.7,0.4,2.3,0.8,4.8,1.2c2.2,0.4,3.7,0.8,4.5,1.2c1.3,0.6,2.3,1.6,2.9,2.8
			c0.7,1.3,1,2.9,1,4.8c0,3.4-1.1,6.2-3.2,8.4s-5.1,3.4-8.8,3.4c-1.7,0-3.2-0.2-4.5-0.6c-1.4-0.4-2.8-1-4.2-1.9
			c0.2-1.1,0.4-2.1,0.5-3C34.6,49,34.6,47.3,34.6,45.2z"/>
		<path id="XMLID_848_" fill="#F2A93D" d="M69.4,53.1c1.3-0.1,2-0.2,2.3-0.5c0.2-0.2,0.5-0.8,0.9-1.8c0.8-2.1,1.9-4.9,3.1-8.6
			l7.1-20.7h2.9l9,25.6c1.2,3.2,1.9,5,2.2,5.3c0.3,0.3,1.1,0.5,2.5,0.6v2.2c-2.2-0.1-4.2-0.2-6.1-0.2c-2.3,0-4.5,0.1-6.6,0.2v-2.2
			c1.6-0.1,2.5-0.2,2.7-0.3c0.2-0.1,0.4-0.4,0.4-0.7c0-0.3-0.3-1.3-0.8-3l-1.3-4C86,45,84.2,45,82.2,45c-1.8,0-3.4,0-4.8,0.1
			l-0.9,2.7c-0.2,0.7-0.5,1.8-0.9,3.3c-0.1,0.3-0.1,0.6-0.1,0.9c0,0.4,0.1,0.6,0.4,0.8c0.3,0.1,1.2,0.3,2.8,0.5v2.2
			c-1.3-0.1-2.9-0.2-4.9-0.2c-1.8,0-3.3,0.1-4.4,0.2V53.1z M82.5,29.9l-4.2,12.3c1.2,0.1,2.6,0.1,4.1,0.1c1.5,0,3,0,4.4-0.1
			L82.5,29.9z"/>
	</g>
</g>
</svg>
