<?xml version="1.0" encoding="utf-8"?>
<!-- Generator: Adobe Illustrator 19.0.0, SVG Export Plug-In . SVG Version: 6.00 Build 0)  -->
<svg version="1.1" id="Layer_1" xmlns="http://www.w3.org/2000/svg" xmlns:xlink="http://www.w3.org/1999/xlink" x="0px" y="0px"
	 viewBox="0 0 192 192" enable-background="new 0 0 192 192" xml:space="preserve">
<g id="XMLID_109_">
	<g id="XMLID_67_">
		<path id="XMLID_68_" fill="#3DA5F2" d="M77,146h101.2c8.7-15,13.8-31.6,13.8-49.8c0-53-43-96.1-96-96.1S0,43.2,0,96.3
			c0,6.4,0.6,12.7,1.8,18.7H76v8H3.7c11.5,40,48.5,69,92.3,69c32,0,60.3-16,77.7-40H77V146z"/>
		<path id="XMLID_72_" fill="#FFFFFF" d="M77,146v6h96.7c1.6-2,3.1-4,4.5-6H77z"/>
		<path id="XMLID_74_" fill="#FFFFFF" d="M76,115H1.8c0.5,2,1.2,5,1.9,8H76V115z"/>
	</g>
	<rect id="XMLID_842_" x="104" y="115" fill="#FFFFFF" width="59" height="8"/>
	<path id="XMLID_846_" fill="#FFFFFF" d="M76.5,138.2v-4c3.6-0.2,5.7-0.6,6.2-1.1c0.5-0.5,0.8-1.8,0.9-3.7c0.2-4.2,0.3-12,0.3-23.3
		c0-4.4-0.1-10.7-0.2-19c-0.1-5.7-0.2-8.8-0.3-9.3c-0.2-0.6-0.4-1-0.8-1.2c-0.6-0.3-2.6-0.6-6-0.9v-4C81.9,71.9,86.1,72,89,72
		c5,0,9.5-0.1,13.5-0.3v4c-3.6,0.3-5.7,0.6-6.1,1c-0.5,0.4-0.8,1.4-0.9,3c-0.2,3-0.3,9.2-0.3,18.5c0,12.3,0,20.9,0.1,25.8
		c0.1,4.9,0.3,7.7,0.7,8.7c0.2,0.4,0.5,0.7,1,1c0.5,0.2,2.3,0.5,5.5,0.7v4"/>
	<path id="XMLID_844_" fill="#FFFFFF" d="M34.2,86.8h3.5c0,4.7,0.2,7.4,0.4,8.2c0.2,0.8,1,1.9,2.3,3.2c1.3,1.3,3,2.4,5,3.2
		s4.2,1.2,6.3,1.2c3.7,0,6.7-1.2,8.9-3.6c2.2-2.4,3.4-5.3,3.4-8.9c0-3.3-0.7-5.8-2.2-7.5c-1.5-1.7-4.4-3-8.6-3.7
		c-6.2-1.1-10.5-2.2-12.6-3.5c-2.2-1.3-3.9-3.2-5.2-5.7c-1.3-2.5-1.9-5.6-1.9-9.1c0-5.9,1.8-11,5.3-15.1c3.5-4.1,9.1-6.2,16.8-6.2
		c3,0,5.7,0.3,8,0.8c2.3,0.5,4.7,1.4,7,2.7l0.4,1.1c-0.4,2-0.7,3.8-0.9,5.4c-0.2,1.6-0.3,4.4-0.5,8.4h-3.4c-0.1-4.9-0.3-7.6-0.6-8.2
		c-0.5-1-1.8-2.1-3.8-3.3c-2.1-1.2-4.4-1.7-7-1.7c-3.6,0-6.4,1.1-8.4,3.2c-2,2.1-3,4.8-3,8.1c0,2,0.4,3.8,1.2,5.3
		c0.8,1.5,2,2.6,3.4,3.3c1.5,0.7,4.6,1.5,9.5,2.4c4.4,0.8,7.4,1.6,8.9,2.3c2.6,1.2,4.5,3.1,5.8,5.6c1.3,2.5,2,5.7,2,9.6
		c0,6.7-2.1,12.3-6.4,16.7c-4.3,4.4-10.1,6.7-17.6,6.7c-3.3,0-6.3-0.4-9-1.1c-2.7-0.8-5.5-2-8.4-3.7c0.5-2.2,0.8-4.2,1-6
		C34.1,94.4,34.2,91,34.2,86.8z"/>
	<path id="XMLID_848_" fill="#FFFFFF" d="M103.2,102.5c2.5-0.2,4-0.5,4.6-0.9c0.4-0.3,1-1.5,1.9-3.6c1.6-4.1,3.7-9.8,6.2-17.1
		l14-41.1h5.8l17.9,51c2.3,6.4,3.8,10,4.3,10.6c0.5,0.6,2.2,1,5,1.2v4.3c-4.3-0.2-8.4-0.3-12.2-0.3c-4.6,0-8.9,0.1-13.1,0.3v-4.3
		c3.1-0.2,5-0.4,5.5-0.6c0.5-0.3,0.7-0.7,0.7-1.4c0-0.6-0.6-2.6-1.7-6l-2.6-7.9c-3.3-0.1-7-0.1-11-0.1c-3.5,0-6.7,0-9.6,0.1
		l-1.7,5.3c-0.5,1.5-1.1,3.6-1.7,6.5c-0.2,0.6-0.2,1.2-0.2,1.8c0,0.7,0.3,1.2,0.8,1.5c0.5,0.3,2.4,0.6,5.6,0.9v4.3
		c-2.6-0.2-5.8-0.3-9.7-0.3c-3.7,0-6.6,0.1-8.8,0.3V102.5z M129.2,56.5l-8.4,24.4c2.4,0.2,5.1,0.2,8.1,0.2c3.1,0,6-0.1,8.8-0.2
		L129.2,56.5z"/>
</g>
</svg>
