<?xml version="1.0" encoding="utf-8"?>
<!-- Generator: Adobe Illustrator 19.0.0, SVG Export Plug-In . SVG Version: 6.00 Build 0)  -->
<svg version="1.1" id="Layer_1" xmlns="http://www.w3.org/2000/svg" xmlns:xlink="http://www.w3.org/1999/xlink" x="0px" y="0px"
	 viewBox="0 0 310 310" enable-background="new 0 0 310 310" xml:space="preserve">
<g id="XMLID_67_">
	<path id="XMLID_68_" fill="#3DA5F2" d="M124,235h163.8c14.1-23.4,22.2-50.7,22.2-80C310,69.4,240.6,0,155,0S0,69.4,0,155
		c0,10.3,1,20.3,2.9,30H122v13H6c18.6,64.7,78.3,112,149,112c51.6,0,97.3-25.2,125.5-64H124V235z"/>
	<path id="XMLID_72_" fill="#FFFFFF" d="M124,235v11h156.5c2.6-3.6,5-7.2,7.3-11H124z"/>
	<path id="XMLID_74_" fill="#FFFFFF" d="M122,185H2.9c0.9,4.4,1.9,8.7,3.1,13h116V185z"/>
</g>
<rect id="XMLID_842_" x="168" y="185" fill="#FFFFFF" width="95" height="13"/>
<path id="XMLID_846_" fill="#FFFFFF" d="M123.5,223.2v-6.4c5.9-0.4,9.2-0.9,9.9-1.8c0.8-0.8,1.2-2.8,1.4-6.1
	c0.3-6.7,0.5-19.3,0.5-37.7c0-7-0.1-17.3-0.3-30.6c-0.1-9.1-0.3-14.2-0.5-15.1c-0.3-0.9-0.7-1.5-1.3-2c-0.9-0.6-4.2-1-9.7-1.5v-6.4
	c8.8,0.4,15.5,0.5,20.2,0.5c8,0,15.3-0.2,21.8-0.5v6.4c-5.8,0.4-9.1,1-9.9,1.6c-0.8,0.7-1.2,2.3-1.4,4.8c-0.3,4.9-0.5,14.8-0.5,29.8
	c0,19.9,0.1,33.8,0.2,41.6c0.1,7.8,0.5,12.5,1.2,14c0.3,0.7,0.8,1.2,1.6,1.6c0.8,0.4,3.8,0.8,8.9,1.2v6.4"/>
<path id="XMLID_844_" fill="#FFFFFF" d="M55.2,140.1h5.6c0,7.6,0.2,12,0.6,13.3c0.4,1.3,1.6,3,3.7,5.1c2.1,2.1,4.8,3.8,8.1,5.2
	c3.3,1.3,6.7,2,10.3,2c6,0,10.8-1.9,14.4-5.7c3.6-3.8,5.4-8.6,5.4-14.3c0-5.3-1.2-9.3-3.6-12.1c-2.4-2.8-7-4.8-13.8-6
	c-10.1-1.7-16.9-3.6-20.4-5.7c-3.5-2-6.3-5.1-8.3-9.2c-2-4.1-3-9-3-14.7c0-9.6,2.8-17.7,8.5-24.4c5.7-6.7,14.7-10,27.1-10
	c4.9,0,9.2,0.4,13,1.3c3.8,0.9,7.6,2.3,11.4,4.3l0.6,1.8c-0.7,3.2-1.2,6.1-1.4,8.7c-0.3,2.6-0.5,7.1-0.7,13.5h-5.5
	c-0.2-7.8-0.5-12.3-1-13.2c-0.8-1.7-2.9-3.5-6.2-5.3c-3.3-1.9-7.1-2.8-11.4-2.8c-5.9,0-10.4,1.7-13.6,5.1c-3.2,3.4-4.8,7.8-4.8,13.1
	c0,3.3,0.7,6.1,2,8.5c1.3,2.4,3.2,4.2,5.5,5.4c2.4,1.1,7.5,2.5,15.3,3.9c7.1,1.3,11.9,2.5,14.4,3.8c4.1,2,7.3,5,9.4,9.1
	c2.1,4.1,3.2,9.2,3.2,15.5c0,10.8-3.5,19.8-10.4,27c-6.9,7.2-16.4,10.8-28.4,10.8c-5.3,0-10.2-0.6-14.5-1.8c-4.4-1.2-8.9-3.2-13.5-6
	c0.8-3.6,1.3-6.8,1.5-9.7C55,152.4,55.2,146.9,55.2,140.1z"/>
<path id="XMLID_848_" fill="#FFFFFF" d="M166.6,165.5c4-0.3,6.5-0.7,7.4-1.5c0.6-0.5,1.6-2.5,3-5.8c2.6-6.6,5.9-15.9,10-27.7
	l22.7-66.4h9.4l29,82.3c3.8,10.4,6.1,16.1,7,17.1c0.9,1,3.6,1.7,8.1,2v7c-7-0.4-13.5-0.5-19.7-0.5c-7.4,0-14.4,0.2-21.1,0.5v-7
	c5.1-0.2,8-0.6,8.8-1c0.8-0.4,1.2-1.2,1.2-2.3c0-0.9-0.9-4.2-2.7-9.7l-4.2-12.8c-5.3-0.2-11.2-0.2-17.8-0.2
	c-5.7,0-10.9,0.1-15.5,0.2l-2.8,8.6c-0.8,2.3-1.7,5.8-2.8,10.5c-0.3,1-0.4,2-0.4,2.8c0,1.1,0.4,2,1.2,2.4c0.8,0.5,3.8,1,9,1.5v7
	c-4.2-0.4-9.4-0.5-15.6-0.5c-5.9,0-10.6,0.2-14.1,0.5V165.5z M208.6,91.2l-13.5,39.4c3.9,0.3,8.3,0.4,13,0.4c5,0,9.7-0.1,14.2-0.4
	L208.6,91.2z"/>
</svg>
